# xmcd
#
# Track frame offsets:
#	150
#	13810
#	25885
#	35335
#	49210
#	69610
#	83557
#	96757
#	112210
#	125635
#	134935
#	154060
#	165385
#	179335
#	202435
#
# Disc length: 2849 seconds
#
# Revision: 1
# Processed by: cddbd v1.5.1PL0 Copyright (c) Steve Scherf et al.
# Submitted via: audiograbber 1.83.01
#
DISCID=dc0b1f0f
DTITLE=Elvis Presley - Legends 027
DYEAR=1900
DGENRE=
TTITLE0=Elvis Presley - Burning Love
TTITLE1=Elvis Presley - Devil In Disguise
TTITLE2=Elvis Presley - Teddy Bear
TTITLE3=Elvis Presley - Moody Blue
TTITLE4=Elvis Presley - Suspicious Minds
TTITLE5=Elvis Presley - Don't Cry Daddy
TTITLE6=Elvis Presley - Way Down
TTITLE7=Elvis Presley - It's Now Or Never
TTITLE8=Elvis Presley - You Don't Have To Say You Love Me
TTITLE9=Elvis Presley - Can't Help Falling In Love
TTITLE10=Elvis Presley - My Way
TTITLE11=Elvis Presley - Treat Me Nice
TTITLE12=Elvis Presley - In The Ghetto
TTITLE13=Elvis Presley - Polk Salad Annie
TTITLE14=Elvis Presley - Guitar Man
EXTD=
EXTT0=
EXTT1=
EXTT2=
EXTT3=
EXTT4=
EXTT5=
EXTT6=
EXTT7=
EXTT8=
EXTT9=
EXTT10=
EXTT11=
EXTT12=
EXTT13=
EXTT14=
PLAYORDER=
